<svg xmlns="http://www.w3.org/2000/svg" xmlns:xlink="http://www.w3.org/1999/xlink" width="96" height="96" viewBox="0 0 96 96"><defs><linearGradient id="b" x1="949.87" x2="974.39" y1="518.014" y2="544.657" gradientTransform="translate(-2908.705 -1586.04) scale(3.0757)" gradientUnits="userSpaceOnUse" xlink:href="#a"/><linearGradient id="a"><stop offset="0" stop-color="#24f7bc"/><stop offset="1" stop-color="#24c4fc"/></linearGradient></defs><rect width="96" height="96" fill="url(#b)" rx="20.288" ry="20.288"/><path fill="#fff" d="M 30.5,31 C 30.224,31 30,31.224 30,31.5 l 0,6 0,22 0,6 c 0,0.276 0.224,0.5 0.5,0.5 l 5,0 5,0 5,0 5,0 5,0 5,0 5,0 c 0.276,0 0.5,-0.224 0.5,-0.5 l 0,-6 0,-22 0,-6 C 66,31.224 65.776,31 65.5,31 l -5,0 -5,0 -5,0 -5,0 -5,0 -5,0 -5,0 z m 0.5,1 4,0 0,5 -4,0 0,-5 z m 5,0 4,0 0,5 -4,0 0,-5 z m 5,0 4,0 0,5 -4,0 0,-5 z m 5,0 4,0 0,5 -4,0 0,-5 z m 5,0 4,0 0,5 -4,0 0,-5 z m 5,0 4,0 0,5 -4,0 0,-5 z m 5,0 4,0 0,5 -4,0 0,-5 z m -30,6 4.5,0 5,0 5,0 5,0 5,0 5,0 4.5,0 0,21 -4.5,0 -5,0 -5,0 -5,0 -5,0 -5,0 -4.5,0 0,-21 z m 17,2.039062 c -2.757,0 -5,2.243 -5,5 0,2.757001 2.243,5.000001 5,5 2.757,0 5,-2.242999 5,-5 0,-2.757 -2.243,-5 -5,-5 z m 0,1 c 2.206,0 4,1.794001 4,4 0,2.206 -1.794,4.000001 -4,4 -2.206,0 -4,-1.794 -4,-4 0,-2.205999 1.794,-4 4,-4 z M 47.013672,42.625 c -0.088,-0.0021 -0.176859,0.0195 -0.25586,0.0625 C 46.598813,42.7755 46.5,42.943 46.5,43.125 l 0,3.75 c 0,0.182 0.09881,0.3485 0.257812,0.4375 0.075,0.042 0.159188,0.06445 0.242188,0.06445 0.092,0 0.185625,-0.02517 0.265625,-0.07617 l 3,-1.875 c 0.146,-0.091 0.234375,-0.250828 0.234375,-0.423828 0,-0.173 -0.08837,-0.334781 -0.234375,-0.425781 l -3,-1.875 c -0.076,-0.0485 -0.163953,-0.07405 -0.251953,-0.07617 z M 47.5,44.027344 49.056641,45.001953 47.5,45.972656 l 0,-1.945312 z m -1,7.957031 c -0.276,0 -0.5,0.224 -0.5,0.5 l 0,2 c 0,0.276 0.224,0.5 0.5,0.5 l 2.5,0 0,1 -2.5,0 c -0.276,0 -0.5,0.224 -0.5,0.5 0,0.276 0.224,0.5 0.5,0.5 l 3,0 c 0.276,0 0.5,-0.224 0.5,-0.5 l 0,-2 c 0,-0.276 -0.224,-0.5 -0.5,-0.5 l -2.5,0 0,-1 2.5,0 c 0.276,0 0.5,-0.224 0.5,-0.5 0,-0.276 -0.224,-0.5 -0.5,-0.5 l -3,0 z m 5,0 c -0.276,0 -0.5,0.224 -0.5,0.5 0,0.276 0.224,0.5 0.5,0.5 l 1,0 0,3.5 c 0,0.276 0.224,0.5 0.5,0.5 0.276,0 0.5,-0.224 0.5,-0.5 l 0,-3.5 1,0 c 0.276,0 0.5,-0.224 0.5,-0.5 0,-0.276 -0.224,-0.5 -0.5,-0.5 l -3,0 z m -10,0.03125 c -0.276,0 -0.5,0.224 -0.5,0.5 l 0,4 c 0,0.276 0.224,0.5 0.5,0.5 l 1.5,0 1,0 0.5,0 c 0.276,0 0.5,-0.224 0.5,-0.5 l 0,-2 c 0,-0.276 -0.224,-0.5 -0.5,-0.5 l -1,0 c -0.276,0 -0.5,0.224 -0.5,0.5 0,0.276 0.224,0.5 0.5,0.5 l 0.5,0 0,1 -1,0 -1,0 0,-3 2.5,0 c 0.276,0 0.5,-0.224 0.5,-0.5 0,-0.276 -0.224,-0.5 -0.5,-0.5 l -3,0 z M 31,60 l 4,0 0,5 -4,0 0,-5 z m 5,0 4,0 0,5 -4,0 0,-5 z m 5,0 4,0 0,5 -4,0 0,-5 z m 5,0 4,0 0,5 -4,0 0,-5 z m 5,0 4,0 0,5 -4,0 0,-5 z m 5,0 4,0 0,5 -4,0 0,-5 z m 5,0 4,0 0,5 -4,0 0,-5 z"/></svg>