<svg id="Capa_1" enable-background="new 0 0 512 512" height="512" viewBox="0 0 512 512" width="512" xmlns="http://www.w3.org/2000/svg"><g><g><path d="m424.339 328.145h-336.678c-13.282 0-24.048-10.767-24.048-24.048v-96.194c0-13.282 10.767-24.048 24.048-24.048h336.677c13.282 0 24.048 10.767 24.048 24.048v96.194c.001 13.281-10.766 24.048-24.047 24.048z" fill="#e8f7e2"/><g><ellipse cx="319.983" cy="127.875" fill="#b3e59f" rx="45.061" ry="19.312" transform="matrix(.707 -.707 .707 .707 3.3 263.716)"/><ellipse cx="192.017" cy="127.875" fill="#95d6a4" rx="19.312" ry="45.061" transform="matrix(.707 -.707 .707 .707 -34.181 173.23)"/><ellipse cx="319.983" cy="384.125" fill="#b3e59f" rx="19.312" ry="45.061" transform="matrix(.707 -.707 .707 .707 -177.897 338.769)"/><ellipse cx="192.017" cy="384.125" fill="#95d6a4" rx="45.061" ry="19.312" transform="matrix(.707 -.707 .707 .707 -215.377 248.285)"/><g fill="#b3e59f"><ellipse cx="256" cy="63.613" rx="24.048" ry="56.113"/><ellipse cx="256" cy="448.387" rx="24.048" ry="56.113"/></g></g></g><g><path d="m104.49 317.413c4.142 0 7.5-3.358 7.5-7.5v-107.826c0-4.142-3.358-7.5-7.5-7.5h-23.047c-4.142 0-7.5 3.358-7.5 7.5s3.358 7.5 7.5 7.5h15.547v100.325c0 4.143 3.358 7.501 7.5 7.501z"/><path d="m363.035 312.174c.948.398 1.932.586 2.899.586 2.931 0 5.714-1.729 6.919-4.6l42.252-100.68c1.603-3.819-.194-8.215-4.013-9.818-3.82-1.602-8.215.194-9.818 4.013l-42.252 100.68c-1.603 3.821.194 8.216 4.013 9.819z"/><path d="m384.018 221.582c0-16.098-11.74-29.195-26.169-29.195s-26.169 13.097-26.169 29.195 11.74 29.195 26.169 29.195 26.169-13.097 26.169-29.195zm-26.169 14.195c-6.159 0-11.169-6.368-11.169-14.195s5.011-14.195 11.169-14.195 11.169 6.368 11.169 14.195-5.011 14.195-11.169 14.195z"/><path d="m414.913 319.613c14.43 0 26.169-13.097 26.169-29.195s-11.74-29.195-26.169-29.195-26.169 13.097-26.169 29.195 11.739 29.195 26.169 29.195zm0-43.39c6.159 0 11.169 6.368 11.169 14.195s-5.011 14.195-11.169 14.195-11.169-6.368-11.169-14.195 5.01-14.195 11.169-14.195z"/><path d="m235.304 231.067v49.865c0 21.328 17.352 38.68 38.68 38.68 21.329 0 38.681-17.352 38.681-38.68v-49.865c0-21.328-17.352-38.68-38.681-38.68-21.328 0-38.68 17.352-38.68 38.68zm62.361 0v49.865c0 13.058-10.623 23.68-23.681 23.68-13.057 0-23.68-10.623-23.68-23.68v-49.865c0-13.058 10.623-23.68 23.68-23.68 13.058 0 23.681 10.623 23.681 23.68z"/><path d="m135.536 231.067v49.865c0 21.328 17.352 38.68 38.68 38.68 21.329 0 38.681-17.352 38.681-38.68v-49.865c0-21.328-17.352-38.68-38.681-38.68-21.328 0-38.68 17.352-38.68 38.68zm62.36 0v49.865c0 13.058-10.623 23.68-23.681 23.68-13.057 0-23.68-10.623-23.68-23.68v-49.865c0-13.058 10.623-23.68 23.68-23.68 13.058 0 23.681 10.623 23.681 23.68z"/><path d="m63.613 167.307h384.774c4.142 0 7.5-3.358 7.5-7.5 0-4.143-3.358-7.5-7.5-7.5h-49.18c5.366-6.754 8.584-15.288 8.584-24.564 0-4.143-3.358-7.5-7.5-7.5s-7.5 3.357-7.5 7.5c0 13.545-11.02 24.564-24.565 24.564h-34.773c2.142-1.698 4.211-3.513 6.171-5.473 13.792-13.792 21.226-32.437 20.397-51.154-.172-3.881-3.279-6.989-7.161-7.161-18.719-.828-37.363 6.605-51.154 20.397-4.535 4.535-8.419 9.62-11.544 15.113-2.048 3.601-.79 8.18 2.811 10.228 3.599 2.048 8.179.791 10.228-2.811 2.461-4.326 5.527-8.338 9.113-11.924 8.984-8.984 20.526-14.533 32.497-15.792-1.259 11.97-6.808 23.513-15.792 32.497-10.684 10.685-24.83 16.079-39.349 16.079h-26.17v-29.404c15.315-15.292 24.048-36.696 24.048-59.29 0-23.773-9.653-46.242-26.485-61.646-2.866-2.623-7.261-2.623-10.127 0-16.832 15.403-26.485 37.873-26.485 61.646 0 2.922.146 5.871.436 8.761.412 4.123 4.095 7.124 8.209 6.717 4.122-.412 7.129-4.087 6.717-8.209-.24-2.397-.361-4.843-.361-7.269 0-17.025 5.959-33.19 16.548-45.381 10.589 12.191 16.548 28.356 16.548 45.381 0 17.026-5.958 33.189-16.547 45.38-2.46-2.833-4.687-5.901-6.657-9.173-2.136-3.548-6.743-4.694-10.293-2.558-3.549 2.137-4.694 6.745-2.557 10.294 3.397 5.643 7.43 10.793 12.006 15.362v29.388h-17.269c-1.227-16.027-8.374-31.51-20.255-43.391-13.792-13.792-32.438-21.224-51.154-20.397-3.881.172-6.989 3.279-7.161 7.161-.829 18.717 6.605 37.362 20.397 51.154 1.96 1.96 4.028 3.774 6.171 5.473h-35.455c-13.545 0-24.565-11.02-24.565-24.564 0-4.143-3.358-7.5-7.5-7.5s-7.5 3.357-7.5 7.5c0 9.276 3.217 17.811 8.584 24.564h-49.18c-4.142 0-7.5 3.357-7.5 7.5 0 4.143 3.358 7.502 7.5 7.502zm104.26-63.577c11.97 1.259 23.513 6.808 32.497 15.792s14.534 20.526 15.792 32.497c-11.969-1.259-23.513-6.809-32.497-15.792-8.984-8.984-14.534-20.527-15.792-32.497z"/><path d="m448.387 344.693h-384.774c-4.142 0-7.5 3.358-7.5 7.5 0 4.143 3.358 7.5 7.5 7.5h49.18c-5.366 6.754-8.584 15.288-8.584 24.564 0 4.143 3.358 7.5 7.5 7.5s7.5-3.357 7.5-7.5c0-13.545 11.02-24.564 24.565-24.564h34.771c-2.142 1.698-4.209 3.513-6.169 5.473-13.792 13.792-21.226 32.437-20.397 51.154.172 3.881 3.279 6.989 7.161 7.161.945.042 1.889.062 2.833.062 17.754 0 35.226-7.364 48.321-20.459 4.535-4.535 8.419-9.62 11.544-15.113 2.048-3.601.79-8.18-2.811-10.228s-8.179-.791-10.228 2.811c-2.461 4.326-5.527 8.338-9.113 11.924-8.984 8.984-20.526 14.533-32.497 15.792 1.259-11.97 6.808-23.513 15.792-32.497 10.624-10.624 24.892-16.079 39.105-16.079h26.414v29.404c-15.315 15.292-24.048 36.696-24.048 59.29 0 23.773 9.653 46.242 26.485 61.646 1.433 1.31 3.248 1.966 5.063 1.966s3.63-.656 5.063-1.967c16.832-15.403 26.485-37.873 26.485-61.646 0-2.922-.146-5.871-.436-8.761-.412-4.122-4.094-7.124-8.209-6.717-4.122.412-7.129 4.087-6.717 8.209.24 2.397.361 4.843.361 7.269 0 17.025-5.959 33.19-16.548 45.381-10.589-12.191-16.548-28.356-16.548-45.381 0-17.026 5.958-33.189 16.547-45.38 2.46 2.833 4.687 5.901 6.657 9.173 2.136 3.548 6.744 4.694 10.293 2.558 3.549-2.137 4.694-6.745 2.557-10.294-3.397-5.643-7.43-10.793-12.006-15.362v-29.388h17.269c1.227 16.027 8.374 31.51 20.255 43.391 13.096 13.097 30.566 20.459 48.321 20.459.943 0 1.889-.021 2.833-.062 3.881-.172 6.989-3.279 7.161-7.161.829-18.717-6.605-37.362-20.397-51.154-1.959-1.959-4.026-3.775-6.168-5.473h35.452c13.545 0 24.565 11.02 24.565 24.564 0 4.143 3.358 7.5 7.5 7.5s7.5-3.357 7.5-7.5c0-9.276-3.217-17.811-8.584-24.564h49.18c4.142 0 7.5-3.357 7.5-7.5.001-4.142-3.357-7.501-7.499-7.501zm-104.26 63.577c-11.97-1.259-23.513-6.808-32.497-15.792s-14.534-20.526-15.792-32.497c11.969 1.259 23.513 6.809 32.497 15.792 8.984 8.984 14.534 20.527 15.792 32.497z"/></g></g></svg>